<svg id="Capa_1" enable-background="new 0 0 469.608 469.608" height="512" viewBox="0 0 469.608 469.608" width="512" xmlns="http://www.w3.org/2000/svg"><g><path d="m263.374 282.52c-5.048-2.11-10.475-3.161-15.945-3.09-14.155 0-25.631 6.365-25.631 14.22s11.475 14.215 25.631 14.215c5.469.075 10.895-.969 15.945-3.07 2.383-1.058 3.918-3.423 3.915-6.03v-10.22c.004-2.606-1.532-4.969-3.915-6.025z" fill="#d5d6db"/><path d="m289.48 168.378c-3.661-1.53-7.598-2.292-11.565-2.24-10.26 0-18.585 4.615-18.585 10.31s8.325 10.31 18.585 10.31c3.968.051 7.903-.712 11.565-2.24 1.728-.768 2.84-2.484 2.835-4.375v-7.395c.005-1.89-1.107-3.605-2.835-4.37z" fill="#d5d6db"/><path d="m244.809 142.092c-.672-.615-1.549-.956-2.46-.955h-24.04c-2.013-.003-3.648 1.626-3.651 3.639-.001.466.088.928.261 1.361l25.841 65.616h80.192z" fill="#fe7058"/><path d="m437.093 266.71h-226.785l-120.807-26.226-55.756-24.876v-14.815l376.007 3.86c11.22.09 22.218 3.141 31.881 8.845 4.219 2.52 8.105 5.561 11.565 9.05 3.088 3.06 5.722 6.548 7.82 10.355 2.33 4.285 8.47 9.055 8.59 14.29.02.016-3.985 20.752-32.515 19.517z" fill="#e1e6e9"/><path d="m218.613 245.294-136.212 88.567c-1.803 1.168-2.318 3.577-1.15 5.38.718 1.109 1.95 1.777 3.27 1.775h24.585c4.733.002 9.416-.967 13.76-2.845l230.73-95.877z" fill="#fe7058"/><path d="m40.525 130.592c-.911-1.261-2.374-2.006-3.93-2h-19.59c-2.668-.003-4.833 2.157-4.836 4.825-.001.508.079 1.013.236 1.496l21.35 65.881 57.406.595z" fill="#fe7058"/><path d="m41.475 211.754-40.811 19.77c-.591.293-.833 1.011-.539 1.602.197.396.597.652 1.039.663h19.055c.149-.001.297-.029.435-.085l56.151-21.95z" fill="#fe7058"/><path d="m453.218 222.564c-3.461-3.489-7.346-6.53-11.565-9.05-7.093 3.406-13.168 8.613-17.62 15.1-.787 1.382-.305 3.141 1.078 3.928.433.247.924.377 1.422.377h34.501c-2.098-3.807-4.73-7.294-7.816-10.355z" fill="#3a556a"/><path d="m378.822 216.559h21.315v39.001h-21.315z" fill="#d5d6db"/><g fill="#3a556a"><path d="m360.586 221.319c-2.594 0-4.697 2.101-4.7 4.695v4.21c-.085 2.594 1.95 4.766 4.544 4.851s4.766-1.95 4.851-4.544c.003-.102.003-.205 0-.307v-4.21c0-2.593-2.102-4.695-4.695-4.695z"/><path d="m339.396 221.319c-2.594 0-4.697 2.101-4.7 4.695v4.21c-.085 2.594 1.95 4.766 4.544 4.851s4.766-1.95 4.851-4.544c.003-.102.003-.205 0-.307v-4.21c0-2.593-2.102-4.695-4.695-4.695z"/><path d="m318.205 221.319c-2.594 0-4.697 2.101-4.7 4.695v4.21c-.085 2.594 1.95 4.766 4.544 4.851s4.766-1.95 4.851-4.544c.003-.102.003-.205 0-.307v-4.21c0-2.593-2.102-4.695-4.695-4.695z"/><path d="m297.015 221.319c-2.594 0-4.697 2.101-4.7 4.695v4.21c-.085 2.594 1.95 4.766 4.544 4.851s4.766-1.95 4.851-4.544c.003-.102.003-.205 0-.307v-4.21c0-2.593-2.102-4.695-4.695-4.695z"/><path d="m275.809 221.319c-2.594 0-4.697 2.101-4.7 4.695v4.21c-.085 2.594 1.95 4.766 4.544 4.851s4.766-1.95 4.851-4.544c.003-.102.003-.205 0-.307v-4.21c0-2.593-2.102-4.695-4.695-4.695z"/><path d="m254.634 221.319c-2.594 0-4.697 2.101-4.7 4.695v4.21c-.085 2.594 1.95 4.766 4.544 4.851s4.766-1.95 4.851-4.544c.003-.102.003-.205 0-.307v-4.21c0-2.593-2.102-4.695-4.695-4.695z"/><path d="m233.444 221.319c-2.594 0-4.697 2.101-4.7 4.695v4.21c-.085 2.594 1.95 4.766 4.544 4.851s4.766-1.95 4.851-4.544c.003-.102.003-.205 0-.307v-4.21c0-2.593-2.102-4.695-4.695-4.695z"/><path d="m212.253 221.319c-2.594 0-4.697 2.101-4.7 4.695v4.21c-.085 2.594 1.95 4.766 4.544 4.851s4.766-1.95 4.851-4.544c.003-.102.003-.204 0-.306v-4.21c0-2.594-2.102-4.696-4.695-4.696z"/><path d="m191.063 221.319c-2.594 0-4.697 2.101-4.7 4.695v4.21c-.085 2.594 1.95 4.766 4.544 4.851s4.766-1.95 4.851-4.544c.003-.102.003-.204 0-.306v-4.21c0-2.594-2.102-4.696-4.695-4.696z"/><path d="m169.872 221.319c-2.594 0-4.697 2.101-4.7 4.695v4.21c-.085 2.594 1.95 4.766 4.544 4.851s4.766-1.95 4.851-4.544c.003-.102.003-.204 0-.306v-4.21c0-2.594-2.102-4.696-4.695-4.696z"/><path d="m148.682 221.319c-2.594 0-4.697 2.101-4.7 4.695v4.21c-.085 2.594 1.95 4.766 4.544 4.851s4.766-1.95 4.851-4.544c.003-.102.003-.204 0-.306v-4.21c0-2.594-2.102-4.696-4.695-4.696z"/></g></g></svg>